<svg version="1.1" id="Layer_1" xmlns="http://www.w3.org/2000/svg" xmlns:xlink="http://www.w3.org/1999/xlink" x="0px" y="0px"
	 viewBox="0 0 1675.2 221" style="enable-background:new 0 0 1675.2 221;" xml:space="preserve">
<style type="text/css">
	.st0{fill-rule:evenodd;clip-rule:evenodd;fill:#146EF5;}
	.st1{fill:#080808;}
	.st2{fill-rule:evenodd;clip-rule:evenodd;fill:#080808;}
	.st3{fill:#146EF5;}
</style>
<g>
	<g>
		<path class="st0" d="M305.1,3.4l-93.5,182.8h-87.8l39.1-75.7h-1.8c-32.3,41.9-80.4,69.5-149.1,75.7v-74.7c0,0,43.9-2.6,69.7-29.7
			H12.1V3.4h78.3v64.4l1.8,0l32-64.4h59.2v64l1.8,0l33.2-64H305.1z"/>
		<path class="st1" d="M814.9,166h25.2V21.1h-25.2V166z"/>
		<path class="st2" d="M675.9,164.5c5.5,2.3,11.1,3.4,16.7,3.4c9.4,0,17.7-2.3,25.1-6.8c7.4-4.6,13.1-10.8,17.2-18.9
			c4.1-8.1,6.1-17.2,6.1-27.4s-2.1-19.4-6.3-27.4c-4.2-8.1-10-14.3-17.5-18.8c-7.5-4.5-15.9-6.7-25.4-6.7c-6,0-11.8,1.2-17.4,3.5
			c-5.5,2.3-10.2,5.7-13.9,10c-0.3,0.3-0.6,0.7-0.8,1V21.2h-25.3V166h25.1l-0.1-13.5c0.7,0.8,1.3,1.6,2.1,2.3
			C665.6,158.9,670.4,162.1,675.9,164.5z M701.7,141.1c-4.1,2.5-8.8,3.8-14.1,3.8c-5.2,0-10-1.3-14.4-3.9
			c-4.4-2.6-7.9-6.3-10.4-10.8c-2.5-4.6-3.8-9.7-3.8-15.5c-0.1-5.8,1.2-11,3.7-15.5c2.6-4.6,6.1-8.2,10.4-10.7
			c4.4-2.6,9.2-3.9,14.5-3.8c5.3-0.1,10,1.2,14.1,3.7c4.2,2.5,7.4,6,9.6,10.6c2.3,4.6,3.4,9.8,3.4,15.7c0,5.9-1.1,11.2-3.4,15.7
			C709.1,134.9,705.9,138.5,701.7,141.1z"/>
		<path class="st1" d="M341.7,29.9h28.8l25.8,94.2l27.4-94.2h24l29.8,92.3l24.8-92.3h26.4l-39,136h-24.9l-30.3-90.2L406.8,166h-25.1
			L341.7,29.9z"/>
		<path class="st2" d="M571.3,168.4c-10,0.1-19.1-2.2-27.2-6.7c-8-4.6-14.3-10.9-18.9-18.9c-4.6-8.1-6.8-17.3-6.8-27.6
			c0-10,2.3-19.1,7-27.3c4.7-8.1,11-14.5,19-19c8-4.6,16.9-6.8,26.8-6.8c11.1,0,20.8,2.5,29.1,7.4c8.4,4.9,14.6,11.9,18.8,21
			c4.2,9,5.7,19.3,4.5,31h-79.2c0.2,4.6,1.4,8.9,3.5,12.7c2.3,4.2,5.6,7.5,9.8,9.8c4.2,2.3,8.9,3.5,14,3.5c3.9-0.1,7.6-0.7,11-2
			c3.4-1.4,6.3-3.2,8.6-5.5c2.4-2.3,4.1-4.9,5.1-7.8h26.4c-1.6,7.1-4.8,13.4-9.6,18.9c-4.8,5.5-10.8,9.8-18.1,12.8
			C587.9,166.9,580,168.4,571.3,168.4z M548,95.9c-1.5,2.6-2.5,5.3-3.1,8.3h52.5c-0.4-3.8-1.5-7.2-3.5-10.3
			c-2.2-3.6-5.2-6.4-9.1-8.4c-3.8-2-8.1-3-12.9-3c-5.1,0-9.8,1.2-14,3.5C553.8,88.4,550.5,91.6,548,95.9z"/>
		<path class="st1" d="M759.6,64.1c0-8.3,1.9-15.6,5.6-22c3.8-6.5,9-11.5,15.8-15.1c6.8-3.6,14.8-5.5,23.9-5.6v22.5
			c-4.3,0.1-7.9,1-10.9,2.7c-3,1.7-5.2,4.1-6.8,7.3c-1.5,2.9-2.3,6.4-2.4,10.3h19.6v21.3h-19.6V166h-25.2V85.5h-16.3V64.1H759.6z"/>
		<path class="st2" d="M904.3,168.2c-10.3,0-19.5-2.2-27.6-6.7c-8.1-4.6-14.4-10.8-19-18.9c-4.6-8.1-6.8-17.2-6.8-27.4
			c0-10.3,2.3-19.5,6.8-27.5c4.6-8.1,11-14.4,19-18.9c8.1-4.5,17.3-6.7,27.6-6.7c10.4,0,19.6,2.2,27.7,6.7
			c8.2,4.5,14.6,10.8,19.1,18.9c4.6,8.1,6.9,17.3,6.9,27.6c-0.1,10.2-2.4,19.4-6.9,27.4c-4.5,8-10.8,14.3-19,18.9
			C923.9,165.9,914.7,168.2,904.3,168.2z M904.3,145c5.4,0,10.2-1.2,14.4-3.7c4.2-2.5,7.4-6,9.7-10.5c2.3-4.6,3.4-9.8,3.4-15.6
			c0-5.9-1.1-11.2-3.4-15.7c-2.3-4.6-5.5-8.1-9.7-10.5c-4.2-2.5-9-3.8-14.4-3.8c-5.4,0-10.1,1.3-14.3,3.8c-4.1,2.5-7.3,6-9.6,10.5
			c-2.3,4.6-3.4,9.8-3.3,15.7c0,5.9,1.1,11.1,3.4,15.6c2.3,4.5,5.5,8,9.6,10.5C894.2,143.7,899,145,904.3,145z"/>
		<path class="st1" d="M985.4,64.1h-28.1L987.7,166h24.6l20-65l21.6,65h24.2l30.5-101.8h-25.4l-17.3,63.4l-19.1-63.4h-24.6l-19,64.8
			L985.4,64.1z"/>
	</g>
	<g>
		<path class="st3" d="M1144.7,167.6V30.3h49c13.8,0,25,4.1,33.7,12.3c8.6,8.2,13,18.8,13,31.7c0,13.1-4.3,23.7-13,32
			c-8.6,8.3-19.8,12.4-33.5,12.4h-27.2v48.9H1144.7z M1166.6,99h25.2c7.6,0,13.7-2.3,18.4-6.8c4.7-4.5,7-10.4,7-17.6
			c0.1-7.2-2.3-13.1-7-17.5c-4.7-4.5-10.9-6.7-18.6-6.7h-25V99z"/>
		<path class="st3" d="M1293.2,169.7c-14.6,0-26.5-5-35.8-15.1c-9.3-10-14-22.9-13.9-38.5c0-10.3,2.1-19.5,6.4-27.6
			c4.3-8.1,10.2-14.5,17.8-19c7.6-4.5,16.2-6.8,25.9-6.8c6.8-0.1,13.3,1.3,19.5,4.1s11.1,6.6,14.9,11.4V65h21.2v102.6h-21.1
			l0.1-14.2c-4.2,5-9.5,9-15.8,11.9C1306.1,168.2,1299.7,169.7,1293.2,169.7z M1273.9,91.1c-5.6,6.4-8.4,14.7-8.4,25
			c0,10.3,2.8,18.7,8.4,25c5.6,6.4,13,9.6,22.2,9.6c9.1,0,16.9-3.2,23.3-9.7c6.4-6.5,9.6-14.8,9.7-24.9c0-10.1-3.2-18.4-9.6-24.9
			c-6.4-6.5-14.2-9.7-23.4-9.7C1286.9,81.5,1279.5,84.7,1273.9,91.1z"/>
		<path class="st3" d="M1418.7,212.1c-13.2,0-24.5-3.3-34-9.8c-9.5-6.5-15.1-14.9-16.8-25h23.8c1.7,5.1,5.1,9.1,10,12.1
			c4.9,3,10.8,4.4,17.6,4.4c8.1,0,14.5-2.1,19.1-6.4c4.6-4.3,6.9-10.3,6.8-18.1v-15.6c-4.2,5-9.5,9-15.7,11.8
			c-6.2,2.8-12.8,4.2-19.9,4.2c-9.4,0-17.8-2.3-25.2-6.9c-7.4-4.6-13.2-10.9-17.3-19.1c-4.1-8.2-6.2-17.4-6.2-27.8
			c0-10.2,2.2-19.4,6.6-27.6c4.4-8.2,10.3-14.5,17.8-18.9c7.5-4.4,15.8-6.7,24.9-6.7c7-0.1,13.5,1.3,19.5,4.2
			c6,2.8,11.1,7,15.3,12.4V65h21v104.1c0,13.3-4.2,23.8-12.7,31.5C1444.9,208.3,1433.3,212.1,1418.7,212.1z M1383,116.1
			c0,9.8,3,18,8.9,24.8c5.9,6.7,13.1,10.1,21.6,10.1c8.8,0,16.5-3.4,22.9-10.2c6.4-6.8,9.7-15,9.7-24.7s-3.2-17.9-9.6-24.7
			c-6.4-6.7-14-10.1-22.7-10.1c-8.6,0-15.9,3.3-21.9,10C1386,98.1,1383,106.3,1383,116.1z"/>
		<path class="st3" d="M1531.2,170.2c-10.1,0-19.3-2.2-27.3-6.7c-8.1-4.5-14.4-10.8-19-19s-6.9-17.5-6.9-28c0-7.5,1.4-14.6,4.2-21.3
			c2.8-6.7,6.6-12.3,11.3-17.1c4.7-4.7,10.4-8.5,16.9-11.2c6.5-2.7,13.5-4.1,20.8-4.1c16.6,0.1,29.9,5.6,39.8,16.6
			c9.9,11,14,25.2,12.4,42.5H1500c0.4,8.8,3.6,16,9.5,21.6c5.9,5.6,13.2,8.4,21.8,8.3c7-0.1,13.1-1.8,18.3-5.1
			c5.2-3.3,8.7-7.7,10.5-13.1h22.3c-2.6,10.9-8.5,19.8-17.8,26.4C1555.4,166.8,1544.2,170.2,1531.2,170.2z M1500.6,106.2h60.5
			c-0.7-7.5-3.9-13.5-9.3-18.2c-5.5-4.7-12.2-7-20.2-7.1c-7.7,0-14.4,2.3-20.2,7C1505.6,92.5,1502,98.6,1500.6,106.2z"/>
		<path class="st3" d="M1646.1,95.8c-0.7-4.7-2.6-8.5-5.7-11.4c-3.1-2.9-6.8-4.4-11.1-4.3c-3.7,0.1-6.8,1.3-9.3,3.7
			c-2.5,2.4-3.7,5.3-3.7,8.8c0,5.7,3.8,9.6,11.5,11.9l14.1,4c17.4,4.9,26.1,15,25.9,30.2c-0.1,8.8-3.5,16.1-10.2,21.9
			c-6.7,5.8-15.2,8.6-25.4,8.6c-11.4-0.1-20.9-3.1-28.3-9.1c-7.4-6-11.6-14-12.7-23.9h21.2c0.9,4.8,3.1,8.7,6.6,11.6
			s7.9,4.4,13.1,4.3c4.4-0.1,7.9-1.1,10.5-3.2c2.7-2.1,4-4.8,3.9-8.2c-0.1-6.3-3.8-10.6-10.9-12.8l-13.5-3.9
			c-9.2-2.7-16-6.4-20.4-11.2c-4.4-4.8-6.6-10.9-6.7-18.2c-0.1-9,3.2-16.5,9.9-22.5c6.7-6.1,15.1-9.1,25.4-9.2
			c10.3,0,18.8,3,25.4,8.9c6.6,5.9,10.4,13.9,11.3,23.8H1646.1z"/>
	</g>
</g>
</svg>
